<svg width="34" height="34" viewBox="0 0 34 34" fill="none" xmlns="http://www.w3.org/2000/svg">
<path d="M22.6667 2.83334C24.2315 2.83334 25.5 4.10187 25.5 5.66668L5.66668 5.66667L5.66668 21.5C4.10187 21.5 2.83334 20.2315 2.83334 18.6667V5.66667C2.83334 4.10187 4.10187 2.83334 5.66668 2.83334H22.6667Z" fill="#F2F2F2"/>
<path d="M19.8333 31.1667L16.0556 27.1667H11.3333C9.76854 27.1667 8.50001 25.8981 8.50001 24.3333V11.3333C8.50001 9.76853 9.76854 8.50001 11.3333 8.50001H28.3333C29.8981 8.50001 31.1667 9.76854 31.1667 11.3333V24.3333C31.1667 25.8982 29.8981 27.1667 28.3333 27.1667H23.6111L19.8333 31.1667ZM22.3898 24.3333L28.3333 24.3333V11.3333L11.3333 11.3333V24.3333H17.2769L19.8333 27.0402L22.3898 24.3333Z" fill="#F2F2F2"/>
</svg>
