<svg width="46" height="46" viewBox="0 0 46 46" fill="none" xmlns="http://www.w3.org/2000/svg">
<g id="file / note">
<path id="coolicon" d="M24.9167 40.25H9.58333C7.46624 40.25 5.75 38.5338 5.75 36.4167V9.58333C5.75 7.46624 7.46624 5.75 9.58333 5.75H36.4167C38.5338 5.75 40.25 7.46624 40.25 9.58333V24.9167C40.2491 24.9388 40.2453 24.9607 40.2385 24.9818C40.233 24.9993 40.2292 25.0173 40.227 25.0355C40.2162 25.2045 40.1833 25.3714 40.1292 25.5319L40.112 25.5837C40.0991 25.6269 40.0831 25.6692 40.0641 25.7102C39.9713 25.919 39.8414 26.1092 39.6808 26.2717L26.2641 39.6884C25.9066 40.046 25.4223 40.2479 24.9167 40.25ZM9.58333 9.58333V36.4167H23V24.9167C23 23.8581 23.8581 23 24.9167 23H36.4167V9.58333H9.58333ZM26.8333 26.8333V33.7084L33.7065 26.8333H26.8333Z" fill="white"/>
</g>
</svg>
